<svg xmlns="http://www.w3.org/2000/svg" viewBox="0 0 96 96" fill="none">
  <defs>
    <linearGradient id="ruhang-gold" x1="16" y1="14" x2="78" y2="82" gradientUnits="userSpaceOnUse">
      <stop stop-color="#F0DB9A" />
      <stop offset="0.52" stop-color="#C9A84C" />
      <stop offset="1" stop-color="#8B6A20" />
    </linearGradient>
    <linearGradient id="ruhang-ink" x1="10" y1="8" x2="80" y2="90" gradientUnits="userSpaceOnUse">
      <stop stop-color="#13233F" />
      <stop offset="1" stop-color="#091426" />
    </linearGradient>
  </defs>
  <rect x="8" y="8" width="80" height="80" rx="24" fill="url(#ruhang-ink)" />
  <path d="M31 25h11.5v35.5h20V71H31V25Z" fill="url(#ruhang-gold)" />
  <path d="M55.5 25h9c4.1 0 7.2 1.1 9.3 3.3 2.2 2.2 3.3 5.2 3.3 9.1 0 3.5-.8 6.2-2.5 8.2-1.6 1.9-4.1 3.1-7.4 3.6L78 71H65.9l-9.4-21.1V25Zm9.1 16.9c1.6 0 2.9-.4 3.8-1.2.9-.8 1.3-2 1.3-3.7 0-1.6-.4-2.8-1.2-3.5-.8-.7-2.1-1.1-3.9-1.1h-1.8v9.5h1.8Z" fill="url(#ruhang-gold)" />
</svg>
